<svg xmlns="http://www.w3.org/2000/svg" xmlns:xlink="http://www.w3.org/1999/xlink" width="1536" height="1536" viewBox="0 0 1536 1536">
  <defs>
    <linearGradient id="linear-gradient" x1="0.5" y1="1" x2="0.5" y2="0.024" gradientUnits="objectBoundingBox">
      <stop offset="0" stop-color="#8c7bff"/>
      <stop offset="0.392" stop-color="#7d7fff"/>
      <stop offset="1" stop-color="#5b88ff"/>
    </linearGradient>
  </defs>
  <g id="그룹_5717" data-name="그룹 5717" transform="translate(-0.075 -0.075)">
    <rect id="사각형_1201" data-name="사각형 1201" width="1536" height="1536" transform="translate(0.075 0.075)" fill="url(#linear-gradient)"/>
    <g id="logo-dpfamilynet" transform="translate(210.02 699.066)">
      <g id="Logo">
        <path id="svg_1-path" d="M96.758,125.458h-.863L59.2.008H0V158.161H39.215L37.006,28.377h.863l39.4,129.785h56.8V0H94.6Z" transform="translate(827.15 5.105)" fill="#fff"/>
        <path id="svg_1-path-2" data-name="svg_1-path" d="M29.532,0,0,159.826H43.094L64.93,14.752h.91L87.1,159.834H129.94L100.542,0Z" transform="translate(141.238 5.105)" fill="#fff"/>
        <path id="svg_1-path-3" data-name="svg_1-path" d="M108.784,0l-19.7,122.2h-.895L68.588,0H3.531L0,159.811H39.888l1-143.72h.9L68.43,159.811h40.458l26.65-143.673.887-.047,1.037,143.72h39.9L173.841,0Z" transform="translate(303.037 5.119)" fill="#fff"/>
        <path id="svg_1-path-4" data-name="svg_1-path" d="M42.413,46.218a20.446,20.446,0,0,1-.166-8.341c1.148-5.135,4.6-10.761,14.584-10.761,9.358,0,14.805,5.8,14.805,14.472v9.874h39.832V40.3C111.468,5.439,80.258,0,57.662,0,29.31,0,6.16,9.438,1.892,35.512A54.828,54.828,0,0,0,2.28,57.026C9.208,89.69,65.872,99.151,74.1,119.809c1.544,3.852,1.045,8.847.285,11.866-1.291,5.229-4.877,10.668-15.526,10.668-9.96,0-16.041-5.719-16.041-14.441l-.024-15.507H.024L0,124.75c0,35.652,28,46.366,57.979,46.366,28.9,0,52.587-9.788,56.419-36.469,1.948-13.834.515-22.907-.174-26.291C107.47,74.875,46.966,64.978,42.413,46.218Z" transform="translate(0 0)" fill="#fff"/>
        <path id="svg_1-path-5" data-name="svg_1-path" d="M42.017,45.7a19.81,19.81,0,0,1-.19-8.193c1.116-5.1,4.537-10.668,14.433-10.668,9.247,0,14.679,5.719,14.679,14.27v9.8h39.4V39.861C110.344,5.423,79.419,0,57.116,0,29.009,0,6.057,9.228,1.884,35.138a53.52,53.52,0,0,0,.364,21.32C9.113,88.779,65.215,98.171,73.378,118.6c1.488,3.852,1.037,8.761.309,11.757C72.388,135.628,68.8,140.9,58.3,140.9c-9.913,0-15.882-5.633-15.882-14.262l-.032-15.39H0V123.5c0,35.286,27.75,45.876,57.44,45.876,28.542,0,52.033-9.7,55.794-36.1,1.932-13.655.507-22.65-.166-26.019C106.378,74.128,46.451,64.285,42.017,45.7Z" transform="translate(519.378 0.887)" fill="#fff"/>
        <path id="svg_1-path-6" data-name="svg_1-path" d="M71.693,118.214a31.8,31.8,0,0,1-.372,6.092c-.792,3.976-4.2,11.5-15.3,11.5-11.053,0-14.5-7.524-15.3-11.5a33.025,33.025,0,0,1-.4-6.092V0H.009V114.55c-.063,2.964.23,8.964.372,10.559,2.739,29.793,26.3,39.418,55.635,39.418,29.3,0,52.856-9.625,55.683-39.418.143-1.6.451-7.6.4-10.559V0H71.685V118.214Z" transform="translate(670.607 5.088)" fill="#fff"/>
        <path id="svg_1-path-7" data-name="svg_1-path" d="M56.839,74.323v23.4H73.172v23.179a30.976,30.976,0,0,1-.372,6.069c-.713,4.3-4.782,11.562-16.286,11.562-11.536,0-15.589-7.267-16.333-11.562a33.661,33.661,0,0,1-.356-6.069V47.782a35.835,35.835,0,0,1,.649-7.5c.847-3.937,4.283-11.6,15.882-11.6,12.2,0,15.217,8.092,15.946,11.6a39.932,39.932,0,0,1,.5,6.022v9H113V49.969c-.016,0,.142-5.462-.325-10.45C109.727,9.462,84.937,0,56.688,0,28.423,0,4.22,9.539.713,39.519a102.513,102.513,0,0,0-.7,10.45L0,117.211c.016,3.011.111,5.236.554,10.559,2.629,29.1,27.869,39.527,56.1,39.527,28.249,0,53.49-10.426,56.134-39.527.435-5.33.5-7.555.507-10.559V74.323Z" transform="translate(1002.867 0.755)" fill="#fff"/>
      </g>
    </g>
  </g>
</svg>
